<svg width="18" height="20" viewBox="0 0 18 20" fill="none" xmlns="http://www.w3.org/2000/svg">
<path d="M16.6574 15.0999C16.2249 16.0574 16.0187 16.4849 15.4612 17.3312C14.6849 18.5124 13.5912 19.9849 12.2349 19.9974C11.0299 20.0087 10.7199 19.2137 9.08493 19.2224C7.44993 19.2312 7.10743 20.0112 5.90243 19.9999C4.54618 19.9874 3.50993 18.6587 2.73243 17.4762C0.562428 14.1712 0.334928 10.2937 1.67368 8.23244C2.62493 6.76619 4.12618 5.90994 5.53868 5.90994C6.97618 5.90994 7.87868 6.69744 9.06743 6.69744C10.2199 6.69744 10.9224 5.90869 12.5849 5.90869C13.8412 5.90869 15.1724 6.59244 16.1199 7.77369C13.0137 9.47744 13.5187 13.9137 16.6574 15.0999Z" fill="#FDCC0C"/>
<path d="M1.84257 15.0999C2.27507 16.0574 2.48132 16.4849 3.03882 17.3312C3.81507 18.5124 4.90882 19.9849 6.26507 19.9974C7.47007 20.0087 7.78007 19.2137 9.41507 19.2224C11.0501 19.2312 11.3926 20.0112 12.5976 19.9999C13.9538 19.9874 14.9901 18.6587 15.7676 17.4762C17.9376 14.1712 18.1651 10.2937 16.8263 8.23244C15.8751 6.76619 14.3738 5.90994 12.9613 5.90994C11.5238 5.90994 10.6213 6.69744 9.43257 6.69744C8.28007 6.69744 7.57757 5.90869 5.91507 5.90869C4.65882 5.90869 3.32757 6.59244 2.38007 7.77369C5.48632 9.47744 4.98132 13.9137 1.84257 15.0999Z" fill="#FDCC0C"/>
<path d="M12.0049 3.37375C12.6874 2.49875 13.2049 1.2625 13.0161 0C11.9024 0.07625 10.5999 0.785 9.83863 1.70875C9.14863 2.5475 8.57863 3.79125 8.79988 5C10.0161 5.0375 11.2736 4.31125 12.0049 3.37375Z" fill="#FDCC0C"/>
</svg>
