<svg width="17" height="20" viewBox="0 0 17 20" fill="none" xmlns="http://www.w3.org/2000/svg">
<path d="M10.9051 7.86625C10.9051 7.86625 11.8376 2.38125 8.03258 0C7.91793 1.90607 6.99691 3.6731 5.50008 4.85875C3.87508 6.2875 0.818831 9.5 0.851331 12.925C0.827516 15.9116 2.49923 18.6534 5.16508 20C5.2594 18.6645 5.88746 17.4233 6.90758 16.5562C7.77196 15.8915 8.33313 14.9074 8.46508 13.825C10.7408 15.0348 12.2126 17.3521 12.3401 19.9263V19.9425C14.8553 18.7904 16.511 16.3241 16.6251 13.56C16.8951 10.3425 15.1326 5.9675 13.5688 4.5375C12.9784 5.85556 12.0616 7.00126 10.9051 7.86625Z" fill="#FF0000"/>
</svg>
