<svg width="19" height="19" viewBox="0 0 19 19" fill="none" xmlns="http://www.w3.org/2000/svg">
<path d="M18.2353 2.47061C17.8824 2.11767 17.4118 1.88237 17.0588 1.88237C16.9412 1.41179 16.8235 1.05885 16.4706 0.705904C15.6471 -0.117626 14.2353 -0.117626 13.4118 0.705904C12.7059 1.41179 12.5882 2.58826 13.1765 3.41179L10.5882 5.88237L9.29412 4.58826L6.70588 7.17649C6.47059 7.05885 6.11765 7.05885 5.88235 7.05885C2.58824 7.05885 0 9.64708 0 12.9412C0 16.2353 2.58824 18.8236 5.88235 18.8236C9.17647 18.8236 11.7647 16.2353 11.7647 12.9412C11.7647 12.7059 11.7647 12.353 11.6471 12.1177L14.2353 9.52943L12.9412 8.23532L15.4118 5.76473C16.2353 6.35296 17.4118 6.23532 18.1176 5.52943C19.0588 4.7059 19.0588 3.29414 18.2353 2.47061Z" fill="#4AB8FF"/>
</svg>
