<svg width="28" height="24" viewBox="0 0 28 24" fill="none" xmlns="http://www.w3.org/2000/svg">
<path d="M11.3332 6.66663L6.99984 11C7.41317 11.16 7.7465 11.36 8.0265 11.52C8.51984 11.8266 8.81317 12 9.55984 12C10.3065 12 10.5998 11.8266 11.0932 11.52C11.7065 11.16 12.5332 10.6666 14.0132 10.6666C15.4932 10.6666 16.3198 11.16 16.9198 11.52C17.4132 11.8133 17.7198 12 18.4532 12C19.1865 12 19.4932 11.8266 19.9865 11.52C20.1465 11.4266 20.3332 11.32 20.5332 11.2133L11.9732 2.66663C9.9065 0.599968 7.99984 -0.0133657 4.6665 -3.23596e-05V3.3333C7.09317 3.31997 8.51984 3.8533 9.99984 5.3333L11.3332 6.66663ZM27.3332 18H27.3065H27.3332ZM5.13317 16.6666C5.8665 16.6666 6.17317 16.8533 6.6665 17.1466C7.2665 17.5066 8.09317 18 9.57317 18C11.0532 18 11.8798 17.5066 12.4798 17.1466C12.9732 16.84 13.2665 16.6666 14.0132 16.6666C14.7465 16.6666 15.0532 16.8533 15.5465 17.1466C16.1465 17.5066 16.9732 18 18.4532 18C19.9332 18 20.7598 17.5066 21.3598 17.1466C21.8532 16.84 22.1465 16.6666 22.8932 16.6666C23.6265 16.6666 23.9332 16.8533 24.4265 17.1466C25.0265 17.5066 25.8398 17.9866 27.3065 18V15.3333C26.5732 15.3333 26.2665 15.1466 25.7732 14.8533C25.1732 14.4933 24.3465 14 22.8665 14C21.3865 14 20.5598 14.4933 19.9598 14.8533C19.4665 15.16 19.1598 15.3333 18.4265 15.3333C17.6932 15.3333 17.3865 15.1466 16.8932 14.8533C16.2932 14.4933 15.4665 14 13.9865 14C12.5065 14 11.6798 14.4933 11.0798 14.8533C10.5865 15.16 10.2932 15.3333 9.5465 15.3333C8.81317 15.3333 8.5065 15.1466 8.01317 14.8533C7.41317 14.4933 6.5865 14 5.1065 14C3.6265 14 2.79984 14.4933 2.19984 14.8533C1.7065 15.16 1.41317 15.3333 0.666504 15.3333V18C2.1465 18 2.97317 17.5066 3.59984 17.1466C4.09317 16.84 4.39984 16.6666 5.13317 16.6666ZM22.8932 20C21.4132 20 20.5865 20.4933 19.9865 20.8533C19.4932 21.16 19.1865 21.3333 18.4532 21.3333C17.7198 21.3333 17.4132 21.1466 16.9198 20.8533C16.3198 20.4933 15.4932 20 14.0132 20C12.5332 20 11.7065 20.4933 11.0932 20.8533C10.5998 21.16 10.3065 21.3333 9.55984 21.3333C8.81317 21.3333 8.51984 21.16 8.0265 20.8533C7.4265 20.4933 6.59984 20 5.11984 20C3.63984 20 2.81317 20.4933 2.19984 20.8533C1.7065 21.16 1.41317 21.3333 0.666504 21.3333V24C2.1465 24 2.97317 23.5066 3.5865 23.1466C4.07984 22.84 4.3865 22.6666 5.11984 22.6666C5.85317 22.6666 6.15984 22.84 6.65317 23.1466C7.25317 23.5066 8.07984 24 9.55984 24C11.0398 24 11.8665 23.5066 12.4798 23.1466C12.9732 22.84 13.2665 22.6666 14.0132 22.6666C14.7465 22.6666 15.0532 22.8533 15.5465 23.1466C16.1465 23.5066 16.9732 24 18.4532 24C19.9332 24 20.7465 23.5066 21.3598 23.1466C21.8532 22.84 22.1465 22.6666 22.8932 22.6666C23.6265 22.6666 23.9332 22.8533 24.4265 23.1466C25.0265 23.5066 25.8532 24 27.3332 24V21.3333C26.5865 21.3333 26.2932 21.16 25.7998 20.8533C25.1998 20.4933 24.3732 20 22.8932 20Z" fill="#FF0101"/>
<path d="M19.9998 6.66667C21.8408 6.66667 23.3332 5.17428 23.3332 3.33333C23.3332 1.49238 21.8408 0 19.9998 0C18.1589 0 16.6665 1.49238 16.6665 3.33333C16.6665 5.17428 18.1589 6.66667 19.9998 6.66667Z" fill="#FF0101"/>
</svg>
